<svg xmlns="http://www.w3.org/2000/svg" viewBox="0 0 120 120">
  <defs>
    <linearGradient id="grad" x1="0%" y1="0%" x2="100%" y2="100%">
      <stop offset="0%" stop-color="#4f46e5"/>
      <stop offset="100%" stop-color="#4338ca"/>
    </linearGradient>
  </defs>
  <rect width="120" height="120" rx="28" fill="url(#grad)"/>
  <path d="M30 62 H90" stroke="#fff" stroke-width="10" stroke-linecap="round"/>
  <path d="M28 50 C28 48 30 46 32 46 H38 C40 46 42 48 42 50 V70 C42 72 40 74 38 74 H32 C30 74 28 72 28 70 Z" fill="#fff"/>
  <path d="M78 50 C78 48 80 46 82 46 H88 C90 46 92 48 92 50 V70 C92 72 90 74 88 74 H82 C80 74 78 72 78 70 Z" fill="#fff"/>
  <path d="M42 59 H78" stroke="#fff" stroke-width="8" stroke-linecap="round"/>
  <path d="M46 52 L53 52 L53 68 L46 68 Z" fill="#fff"/>
  <path d="M67 52 L74 52 L74 68 L67 68 Z" fill="#fff"/>
</svg>
